<svg width="18" height="19" viewBox="0 0 18 19" fill="none" xmlns="http://www.w3.org/2000/svg">
<g clip-path="url(#clip0_147_6630)">
<path d="M3.375 15.7733C3.99632 15.7733 4.5 15.2696 4.5 14.6483C4.5 14.0269 3.99632 13.5233 3.375 13.5233C2.75368 13.5233 2.25 14.0269 2.25 14.6483C2.25 15.2696 2.75368 15.7733 3.375 15.7733Z" fill="#3BAA90"/>
<path d="M15.75 10.1483H14.0625V9.02325C14.0622 8.72499 13.9435 8.43904 13.7326 8.22814C13.5217 8.01723 13.2358 7.8986 12.9375 7.89825H10.6875C10.3892 7.8986 10.1033 8.01723 9.89238 8.22814C9.68148 8.43904 9.56284 8.72499 9.5625 9.02325V10.1483H7.875C7.57674 10.1486 7.29079 10.2672 7.07988 10.4781C6.86898 10.689 6.75034 10.975 6.75 11.2733V15.7733C6.75034 16.0715 6.86898 16.3575 7.07988 16.5684C7.29079 16.7793 7.57674 16.8979 7.875 16.8983H15.75C16.0483 16.8979 16.3342 16.7793 16.5451 16.5684C16.756 16.3575 16.8747 16.0715 16.875 15.7733V11.2733C16.8747 10.975 16.756 10.689 16.5451 10.4781C16.3342 10.2672 16.0483 10.1486 15.75 10.1483ZM10.6875 9.02325H12.9375V10.1483H10.6875V9.02325ZM15.75 15.7733H7.875V11.2733H15.75V15.7733Z" fill="#3BAA90"/>
<path d="M5.625 3.39825H7.875V6.77325H9V3.39825H11.25V6.77325H12.375V3.39825H14.625V6.77325H15.75V3.40101C15.75 3.25291 15.7209 3.10625 15.6642 2.96942C15.6075 2.83259 15.5244 2.70826 15.4197 2.60353C15.315 2.49881 15.1907 2.41574 15.0538 2.35907C14.917 2.3024 14.7703 2.27324 14.6222 2.27325H2.25276C2.10465 2.27324 1.958 2.3024 1.82117 2.35907C1.68433 2.41574 1.56 2.49881 1.45528 2.60353C1.35055 2.70826 1.26749 2.83259 1.21082 2.96942C1.15415 3.10625 1.12499 3.25291 1.125 3.40101V11.2704C1.12497 11.4185 1.15412 11.5652 1.21078 11.702C1.26745 11.8389 1.35051 11.9632 1.45524 12.0679C1.55997 12.1727 1.6843 12.2558 1.82114 12.3124C1.95798 12.3691 2.10464 12.3983 2.25276 12.3983H5.625V3.39825ZM4.5 11.2733H2.25V3.39825H4.5V11.2733Z" fill="#3BAA90"/>
</g>
<defs>
<clipPath id="clip0_147_6630">
<rect width="18" height="18" fill="white" transform="translate(0 0.0232544)"/>
</clipPath>
</defs>
</svg>
